<svg xmlns="http://www.w3.org/2000/svg" viewBox="0 0 400 400"><defs><style>.cls-1{fill:#0f0c4c;}.cls-2{fill:#4c48ff;}.cls-3{fill:#fff;}.cls-4{fill:#f2d700;}.cls-5{fill:#1ac1bc;}.cls-6{fill:none;}</style></defs><g id="Layer_2" data-name="Layer 2"><rect class="cls-1" width="400" height="400"/></g><g id="Layer_1" data-name="Layer 1"><circle class="cls-2" cx="200.8" cy="115.94" r="64.66"/><rect class="cls-3" x="340.54" y="221.7" width="33.27" height="129.35"/><rect class="cls-3" x="283.84" y="221.7" width="33.27" height="129.35"/><polygon class="cls-3" points="368.26 337.71 340.39 350.05 288.9 234.21 316.76 221.87 368.26 337.71"/><polygon class="cls-4" points="261.5 353.56 210.46 241.98 198.7 217.56 187.27 241.98 136.24 353.29 168.76 353.32 228.97 353.32 261.5 353.56"/><rect class="cls-3" x="25.09" y="48.29" width="28.49" height="138.81"/><path class="cls-3" d="M62.16,157.7l-11.65-.07.2-32.33,10.3.06c12.75-1.18,22.66-10.89,22.66-22.32S73.74,81.87,61,80.71H49.76l0-32.34,13,.06C92.63,50.59,116,74.58,116,103s-23.37,52.45-53.21,54.61Z"/><rect class="cls-5" x="291.76" y="48.29" width="28.49" height="138.81"/><path class="cls-5" d="M328.83,157.7l-11.65-.07.21-32.33,10.3.06c12.75-1.18,22.66-10.89,22.66-22.32s-9.94-21.17-22.71-22.33h-11.2l0-32.34,13,.06c29.83,2.17,53.21,26.16,53.21,54.62s-23.38,52.45-53.21,54.61Z"/><rect class="cls-6" x="246.94" y="60.81" width="34.92" height="34.92" transform="translate(22.1 209.88) rotate(-45)"/><circle class="cls-6" cx="254.47" cy="83.27" r="8.82"/><path class="cls-6" d="M260.88,85l-5.44,5.44A7.23,7.23,0,0,0,260.88,85Z"/><path class="cls-6" d="M249.85,89.1l9.87-9.87a7.47,7.47,0,0,0-1.45-1.52l-9.9,9.9-.9-.89a7.27,7.27,0,0,0,3.07,3.07Z"/><path class="cls-6" d="M253.31,90.57,261,82.85a7.24,7.24,0,0,0-.59-2.37l-9.5,9.5A6.94,6.94,0,0,0,253.31,90.57Z"/><path class="cls-6" d="M254.78,76.26l-8.06,8.07a7,7,0,0,0,.69,2.27L257.05,77A7.22,7.22,0,0,0,254.78,76.26Z"/><path class="cls-6" d="M246.74,82.33l6-6A7.21,7.21,0,0,0,246.74,82.33Z"/><path class="cls-5" d="M253.86,76.19a7.61,7.61,0,0,0-1.08.09l-6,6a7.47,7.47,0,0,0-.09,1.07,7.28,7.28,0,0,0,.07.93l8.06-8.07A7,7,0,0,0,253.86,76.19Z"/><path class="cls-5" d="M250.54,89.79l.4.19,9.5-9.5a7.37,7.37,0,0,0-.72-1.25l-9.87,9.87Z"/><path class="cls-5" d="M258.27,77.71a8,8,0,0,0-1.22-.76l-9.64,9.65.06.12.9.89Z"/><path class="cls-5" d="M253.86,90.6a6.9,6.9,0,0,0,1.58-.18L260.88,85a7.5,7.5,0,0,0,.18-1.58,4.93,4.93,0,0,0,0-.55l-7.72,7.72A4.93,4.93,0,0,0,253.86,90.6Z"/><path class="cls-5" d="M263.55,87.25a10.63,10.63,0,0,0,.67-2.65,11.73,11.73,0,0,0,.07-1.2,10.41,10.41,0,0,0-.15-1.69,10.82,10.82,0,0,0-.38-1.59,10.4,10.4,0,0,0-1.74-3.2,10.29,10.29,0,0,0-1.45-1.5,11.65,11.65,0,0,0-1.15-.84,10.75,10.75,0,0,0-3.52-1.41,9.8,9.8,0,0,0-2-.21c-.26,0-.51,0-.75,0a10.23,10.23,0,0,0-2.44.46,10.49,10.49,0,0,0-6.75,6.75,10.33,10.33,0,0,0-.46,2.44c0,.25,0,.5,0,.75a10.45,10.45,0,0,0,10.44,10.44,9.67,9.67,0,0,0,1.2-.08,10.47,10.47,0,0,0,8.49-6.51Zm-16.08-.53-.06-.12a7,7,0,0,1-.69-2.27,7.28,7.28,0,0,1-.07-.93,7.47,7.47,0,0,1,.09-1.07,7.21,7.21,0,0,1,6-6,7.61,7.61,0,0,1,1.08-.09,7,7,0,0,1,.92.07,7.22,7.22,0,0,1,2.27.69,8,8,0,0,1,1.22.76,7.47,7.47,0,0,1,1.45,1.52,7.37,7.37,0,0,1,.72,1.25,7.24,7.24,0,0,1,.59,2.37,4.93,4.93,0,0,1,0,.55,7.5,7.5,0,0,1-.18,1.58,7.23,7.23,0,0,1-5.44,5.44,6.9,6.9,0,0,1-1.58.18,4.93,4.93,0,0,1-.55,0,6.94,6.94,0,0,1-2.37-.59l-.4-.19A7.27,7.27,0,0,1,247.47,86.72Z"/><circle class="cls-3" cx="250.87" cy="54.87" r="5.54"/><circle class="cls-4" cx="224.14" cy="79.51" r="9.74"/><path class="cls-6" d="M201.55,180.69a64.67,64.67,0,0,1,0-129.33"/><path class="cls-5" d="M95.91,307.84c-13.29-1-23.76-11.23-23.76-23.77s10.47-22.82,23.76-23.77l12.28-.07v-40.8l-19.39.23c-36.68,2.63-65.56,31-65.56,65.58s28.88,62.95,65.56,65.59l19.39.33V307.93Z"/><path class="cls-6" d="M159.43,165a3.23,3.23,0,0,1,3,.31,2.1,2.1,0,0,1,.79,2.13,2.48,2.48,0,0,1,0,.27,2.89,2.89,0,0,1-.12.78,64.26,64.26,0,0,0,23.78,10.62,2.85,2.85,0,0,1,2.21-4.69,2.81,2.81,0,0,1,.82.13,1,1,0,0,1,.24.05,2.6,2.6,0,0,1,.4.23l.17.1.24.2a2.89,2.89,0,0,1,.67.84,2,2,0,0,1,.56,1.16,2.6,2.6,0,0,1-1.48,2.53c-.05,0-.11.06-.17.1l-.07,0a65,65,0,0,0,10.32.82V169.7a2.43,2.43,0,0,1-.47.34,2.87,2.87,0,1,1-2.58-5.06,3.23,3.23,0,0,1,3,.31l.07.06v-14.8a1.66,1.66,0,0,1-.39.26,2.82,2.82,0,0,1-1.65.52,2.87,2.87,0,0,1-.92-5.58,3.25,3.25,0,0,1,3,.29V131.37a2.49,2.49,0,0,1-.47.35,2.94,2.94,0,0,1-1.65.52,2.87,2.87,0,0,1-.93-5.58,3.26,3.26,0,0,1,3,.3s0,.05.07.07v-14.8a2,2,0,0,1-.39.25,2.82,2.82,0,0,1-1.65.53,2.87,2.87,0,0,1-.92-5.58,3.22,3.22,0,0,1,3,.29V93.05a2.43,2.43,0,0,1-.47.34,2.87,2.87,0,1,1-2.58-5.06,3.23,3.23,0,0,1,3,.31l.07.06V73.9a1.66,1.66,0,0,1-.39.26,2.82,2.82,0,0,1-1.65.53,2.87,2.87,0,0,1-.92-5.59,3.22,3.22,0,0,1,3,.3V54.72a2.49,2.49,0,0,1-.47.35,2.94,2.94,0,0,1-1.65.52,2.87,2.87,0,0,1-2.88-2.87,2.78,2.78,0,0,1,.3-1.25,64.33,64.33,0,0,0-14.1,2.6,1.46,1.46,0,0,1-.22.43,2.4,2.4,0,0,1-.68.57,2.87,2.87,0,0,1-2.84.26,64.8,64.8,0,0,0-8.55,3.91,3.1,3.1,0,0,1,2.35.47,2.08,2.08,0,0,1,.8,2.13,2.66,2.66,0,0,1,0,.28,2.83,2.83,0,0,1-.31,1.26,1.22,1.22,0,0,1-.23.52,2.28,2.28,0,0,1-.69.57,2.87,2.87,0,0,1-4.52-2.35,2.89,2.89,0,0,1,.6-1.75,65,65,0,0,0-25.38,27.87,2.46,2.46,0,0,1,.81.4,2.08,2.08,0,0,1,.8,2.13,2.48,2.48,0,0,1,0,.27,2.87,2.87,0,0,1-.31,1.27,1.24,1.24,0,0,1-.23.51,2.14,2.14,0,0,1-.69.57,2.85,2.85,0,0,1-1.65.53,2.9,2.9,0,0,1-1.06-.21,64.75,64.75,0,0,0,9.58,61.76c.09,0,.19-.06.28-.09h0l.3-.09a3.13,3.13,0,0,1,2.6.43,2.07,2.07,0,0,1,.8,2.13,2.45,2.45,0,0,1,0,.27,2.82,2.82,0,0,1-.3,1.26,1,1,0,0,1-.13.34,64.2,64.2,0,0,0,5.71,5.48A3.78,3.78,0,0,1,159.43,165ZM189.1,59.43a2.81,2.81,0,0,1,.82.13.69.69,0,0,1,.24,0,2.6,2.6,0,0,1,.4.23l.17.1.24.19a3.07,3.07,0,0,1,.67.85,2,2,0,0,1,.56,1.15,2.61,2.61,0,0,1-1.48,2.54l-.17.09-.15.09A3.52,3.52,0,0,1,190,65a5.82,5.82,0,0,1-.67.22.92.92,0,0,1-.76-.11,2.87,2.87,0,0,1,.52-5.69Zm-.85,19.3h0c.1,0,.19-.07.29-.09a3.16,3.16,0,0,1,2.61.43A2.06,2.06,0,0,1,192,81.2a2.48,2.48,0,0,1,0,.27,3,3,0,0,1-.3,1.26,1.24,1.24,0,0,1-.24.52,2.28,2.28,0,0,1-.69.57,2.89,2.89,0,0,1-4.53-2.36A2.86,2.86,0,0,1,188.25,78.73Zm.85,19a3.19,3.19,0,0,1,.82.13,1,1,0,0,1,.24.05,2.6,2.6,0,0,1,.4.23c.05,0,.11.06.17.1l.24.2a2.81,2.81,0,0,1,.67.85,2,2,0,0,1,.56,1.15,2.6,2.6,0,0,1-1.48,2.53,1,1,0,0,1-.17.1l-.15.08a2.27,2.27,0,0,1-.39.16,5.9,5.9,0,0,1-.67.23,1,1,0,0,1-.76-.12,2.87,2.87,0,0,1,.52-5.69Zm-.85,19.3h0l.29-.08a3.19,3.19,0,0,1,2.61.42,2.08,2.08,0,0,1,.79,2.13,2.48,2.48,0,0,1,0,.27,3,3,0,0,1-.3,1.27,1.2,1.2,0,0,1-.24.51,2.14,2.14,0,0,1-.69.57,2.82,2.82,0,0,1-1.65.53,2.87,2.87,0,0,1-2-.85,2.83,2.83,0,0,1-.85-2A2.88,2.88,0,0,1,188.25,117.05Zm.85,19a2.82,2.82,0,0,1,.82.14.52.52,0,0,1,.24,0,2.6,2.6,0,0,1,.4.23l.17.1.24.19a2.93,2.93,0,0,1,.67.85,2,2,0,0,1,.56,1.15,2.61,2.61,0,0,1-1.48,2.54l-.17.09-.15.08a2.3,2.3,0,0,1-.39.17c-.22.08-.45.16-.67.22a.92.92,0,0,1-.76-.11,2.87,2.87,0,0,1,.52-5.7Zm-.85,19.31h0c.1,0,.19-.07.29-.09a3.16,3.16,0,0,1,2.61.43,2.06,2.06,0,0,1,.79,2.13,2.48,2.48,0,0,1,0,.27,3,3,0,0,1-.3,1.26,1.24,1.24,0,0,1-.24.52,2.28,2.28,0,0,1-.69.57,2.89,2.89,0,0,1-4.53-2.36A2.86,2.86,0,0,1,188.25,155.38Zm-5.76-6.75a2.86,2.86,0,0,1-.3,1.27,1.26,1.26,0,0,1-.24.51,2,2,0,0,1-.68.57,2.87,2.87,0,1,1-2.58-5.06,3.23,3.23,0,0,1,3,.31,2.08,2.08,0,0,1,.79,2.13A2.48,2.48,0,0,1,182.49,148.63Zm0-38.6a2.66,2.66,0,0,1,0,.28,2.82,2.82,0,0,1-.3,1.26,1.24,1.24,0,0,1-.24.52,2.27,2.27,0,0,1-.68.57,2.94,2.94,0,0,1-1.65.52,2.87,2.87,0,0,1-.93-5.58,3.26,3.26,0,0,1,3,.3A2.08,2.08,0,0,1,182.46,110Zm-3.77-40.76a3.23,3.23,0,0,1,3,.31,2.08,2.08,0,0,1,.79,2.13,2.48,2.48,0,0,1,0,.27,2.86,2.86,0,0,1-.3,1.27,1.26,1.26,0,0,1-.24.51,2,2,0,0,1-.68.57,2.87,2.87,0,1,1-2.58-5.06Zm-.17,19.06a3.23,3.23,0,0,1,3,.31,2.08,2.08,0,0,1,.79,2.13,2.48,2.48,0,0,1,0,.27,2.86,2.86,0,0,1-.3,1.27,1.26,1.26,0,0,1-.24.51,2.11,2.11,0,0,1-.68.57,2.87,2.87,0,1,1-2.58-5.06Zm0,38.33a3.26,3.26,0,0,1,3,.3,2.08,2.08,0,0,1,.79,2.13,2.4,2.4,0,0,1,0,.28,2.82,2.82,0,0,1-.3,1.26,1.24,1.24,0,0,1-.24.52,2.4,2.4,0,0,1-.68.57,2.94,2.94,0,0,1-1.65.52,2.87,2.87,0,0,1-.93-5.58Zm0,38.32a3.23,3.23,0,0,1,3,.31,2.08,2.08,0,0,1,.79,2.13,2.48,2.48,0,0,1,0,.27A2.79,2.79,0,0,1,182,169a1.24,1.24,0,0,1-.24.52,2.11,2.11,0,0,1-.68.57,2.87,2.87,0,1,1-2.58-5.06Zm-28.6-86.25h0c.1,0,.2-.07.3-.09a3.13,3.13,0,0,1,2.6.43,2.07,2.07,0,0,1,.8,2.13,2.45,2.45,0,0,1,0,.27,2.82,2.82,0,0,1-.3,1.26,1.36,1.36,0,0,1-.23.52,2.28,2.28,0,0,1-.69.57,2.87,2.87,0,1,1-2.51-5.09Zm3.73,41.06a2.86,2.86,0,0,1-.3,1.27,1.31,1.31,0,0,1-.23.51,2.14,2.14,0,0,1-.69.57,2.87,2.87,0,1,1-2.51-5.09h0l.3-.08a3.17,3.17,0,0,1,2.6.42,2.08,2.08,0,0,1,.8,2.13A2.45,2.45,0,0,1,153.65,119.79ZM144,129.37a2.83,2.83,0,0,1-.31,1.26,1.22,1.22,0,0,1-.23.52,2.44,2.44,0,0,1-.69.57,2.91,2.91,0,0,1-1.65.52,2.87,2.87,0,0,1-.93-5.58,3.25,3.25,0,0,1,3,.3,2.08,2.08,0,0,1,.8,2.13A2.4,2.4,0,0,1,144,129.37Zm.17-19.06a2.83,2.83,0,0,1-.31,1.26,1.22,1.22,0,0,1-.23.52,2.44,2.44,0,0,1-.69.57,2.91,2.91,0,0,1-1.65.52,2.87,2.87,0,0,1-.92-5.58,3.26,3.26,0,0,1,3,.3,2.1,2.1,0,0,1,.79,2.13A2.66,2.66,0,0,1,144.17,110.31Zm8.22,31-.16.09-.15.08a3.29,3.29,0,0,1-.39.17c-.23.08-.45.16-.68.22a.93.93,0,0,1-.76-.11,2.87,2.87,0,0,1,.52-5.7,2.76,2.76,0,0,1,.82.14.53.53,0,0,1,.25,0,2.5,2.5,0,0,1,.39.23,1,1,0,0,1,.17.1,1.55,1.55,0,0,1,.24.19,2.9,2.9,0,0,1,.67.85,1.9,1.9,0,0,1,.56,1.15A2.59,2.59,0,0,1,152.39,141.32Zm0-38.33-.16.1-.15.08a3.2,3.2,0,0,1-.39.16,6,6,0,0,1-.68.23,1,1,0,0,1-.76-.12,2.87,2.87,0,0,1,.52-5.69,3.12,3.12,0,0,1,.82.13,1,1,0,0,1,.25.05,2.5,2.5,0,0,1,.39.23c.06,0,.12.06.17.1a1.59,1.59,0,0,1,.24.2,2.66,2.66,0,0,1,.67.85,1.9,1.9,0,0,1,.56,1.15A2.58,2.58,0,0,1,152.39,103Zm10.92,7.15a2.82,2.82,0,0,1-.3,1.26,1.15,1.15,0,0,1-.24.51,2,2,0,0,1-.68.57,2.87,2.87,0,1,1-2.58-5,3.23,3.23,0,0,1,3,.3,2.08,2.08,0,0,1,.79,2.13A2.4,2.4,0,0,1,163.31,110.14Zm9.58,28.63a2.83,2.83,0,0,1-.31,1.26,1.22,1.22,0,0,1-.23.52,2.44,2.44,0,0,1-.69.57,2.87,2.87,0,1,1-2.58-5.06,3.25,3.25,0,0,1,3,.3,2.08,2.08,0,0,1,.8,2.13A2.66,2.66,0,0,1,172.89,138.77Zm0-38.6a2.48,2.48,0,0,1,0,.27,2.87,2.87,0,0,1-.31,1.27,1.24,1.24,0,0,1-.23.51,2.14,2.14,0,0,1-.69.57,2.87,2.87,0,1,1-2.58-5.06,3.23,3.23,0,0,1,3,.31A2.08,2.08,0,0,1,172.86,100.17ZM169,78.76a3.23,3.23,0,0,1,3,.31,2.06,2.06,0,0,1,.79,2.13,2.48,2.48,0,0,1,0,.27,2.82,2.82,0,0,1-.3,1.26,1.24,1.24,0,0,1-.24.52,2.25,2.25,0,0,1-.68.57A2.87,2.87,0,1,1,169,78.76Zm0,38.33a3.23,3.23,0,0,1,3,.3,2.08,2.08,0,0,1,.79,2.13,2.48,2.48,0,0,1,0,.27,2.86,2.86,0,0,1-.3,1.27,1.2,1.2,0,0,1-.24.51,2.11,2.11,0,0,1-.68.57,2.87,2.87,0,1,1-2.58-5Zm0,38.32a3.23,3.23,0,0,1,3,.31,2.06,2.06,0,0,1,.79,2.13,2.48,2.48,0,0,1,0,.27,2.82,2.82,0,0,1-.3,1.26,1.24,1.24,0,0,1-.24.52,2.25,2.25,0,0,1-.68.57,2.87,2.87,0,1,1-2.58-5.06ZM159.51,69.1a3.23,3.23,0,0,1,3,.31,2.08,2.08,0,0,1,.79,2.13,2.48,2.48,0,0,1,0,.27,2.79,2.79,0,0,1-.3,1.26,1.24,1.24,0,0,1-.24.52,2.25,2.25,0,0,1-.68.57,2.87,2.87,0,1,1-2.58-5.06Zm-.09,19.23a3.25,3.25,0,0,1,3,.31,2.1,2.1,0,0,1,.79,2.13,2.48,2.48,0,0,1,0,.27,2.87,2.87,0,0,1-.31,1.27,1.24,1.24,0,0,1-.23.51,2.14,2.14,0,0,1-.69.57,2.85,2.85,0,0,1-1.65.53,2.87,2.87,0,0,1-.93-5.59Zm0,38.33a3.26,3.26,0,0,1,3,.3,2.1,2.1,0,0,1,.79,2.13,2.4,2.4,0,0,1,0,.28,2.83,2.83,0,0,1-.31,1.26,1.22,1.22,0,0,1-.23.52,2.44,2.44,0,0,1-.69.57,2.91,2.91,0,0,1-1.65.52,2.87,2.87,0,0,1-.92-5.58Zm.08,19.09a3.23,3.23,0,0,1,3,.31,2.07,2.07,0,0,1,.79,2.13,2.48,2.48,0,0,1,0,.27,2.79,2.79,0,0,1-.3,1.26,1.24,1.24,0,0,1-.24.52,2.25,2.25,0,0,1-.68.57,2.87,2.87,0,1,1-2.58-5.06Z"/><path class="cls-3" d="M197.84,69.1a2.87,2.87,0,0,0,.92,5.59,2.82,2.82,0,0,0,1.65-.53,1.66,1.66,0,0,0,.39-.26V69.4A3.22,3.22,0,0,0,197.84,69.1Z"/><path class="cls-3" d="M198.68,55.59a2.94,2.94,0,0,0,1.65-.52,2.49,2.49,0,0,0,.47-.35V51.28c-1.58,0-3.15.08-4.7.19a2.78,2.78,0,0,0-.3,1.25A2.87,2.87,0,0,0,198.68,55.59Z"/><path class="cls-3" d="M181.1,55.07a2.4,2.4,0,0,0,.68-.57,1.46,1.46,0,0,0,.22-.43c-1.27.38-2.51.8-3.74,1.26a2.87,2.87,0,0,0,2.84-.26Z"/><path class="cls-3" d="M197.84,145.75a2.87,2.87,0,0,0,.92,5.58,2.82,2.82,0,0,0,1.65-.52,1.66,1.66,0,0,0,.39-.26V146A3.25,3.25,0,0,0,197.84,145.75Z"/><path class="cls-3" d="M197.75,88.33a2.87,2.87,0,1,0,2.58,5.06,2.43,2.43,0,0,0,.47-.34V88.7l-.07-.06A3.23,3.23,0,0,0,197.75,88.33Z"/><path class="cls-3" d="M190.72,179.64a2.6,2.6,0,0,0,1.48-2.53,2,2,0,0,0-.56-1.16,2.89,2.89,0,0,0-.67-.84l-.24-.2-.17-.1a2.6,2.6,0,0,0-.4-.23,1,1,0,0,0-.24-.05,2.81,2.81,0,0,0-.82-.13,2.85,2.85,0,0,0-2.21,4.69c1.18.26,2.38.49,3.59.69l.07,0C190.61,179.7,190.67,179.68,190.72,179.64Z"/><path class="cls-3" d="M197.75,165a2.87,2.87,0,1,0,2.58,5.06,2.43,2.43,0,0,0,.47-.34v-4.35l-.07-.06A3.23,3.23,0,0,0,197.75,165Z"/><path class="cls-3" d="M197.75,126.66a2.87,2.87,0,0,0,.93,5.58,2.94,2.94,0,0,0,1.65-.52,2.49,2.49,0,0,0,.47-.35V127s0,0-.07-.07A3.26,3.26,0,0,0,197.75,126.66Z"/><path class="cls-3" d="M197.84,107.43a2.87,2.87,0,0,0,.92,5.58,2.82,2.82,0,0,0,1.65-.53,2,2,0,0,0,.39-.25v-4.51A3.22,3.22,0,0,0,197.84,107.43Z"/><path class="cls-3" d="M160.44,151.33a2.86,2.86,0,0,0,1.65-.52,2.25,2.25,0,0,0,.68-.57,1.24,1.24,0,0,0,.24-.52,2.79,2.79,0,0,0,.3-1.26,2.48,2.48,0,0,0,0-.27,2.07,2.07,0,0,0-.79-2.13,3.23,3.23,0,0,0-3-.31,2.87,2.87,0,0,0,.93,5.58Z"/><path class="cls-3" d="M160.44,74.69a2.87,2.87,0,0,0,1.65-.53,2.25,2.25,0,0,0,.68-.57,1.24,1.24,0,0,0,.24-.52,2.79,2.79,0,0,0,.3-1.26,2.48,2.48,0,0,0,0-.27,2.08,2.08,0,0,0-.79-2.13,3.23,3.23,0,0,0-3-.31,2.87,2.87,0,0,0,.93,5.59Z"/><path class="cls-3" d="M160.35,93.92a2.85,2.85,0,0,0,1.65-.53,2.14,2.14,0,0,0,.69-.57,1.24,1.24,0,0,0,.23-.51,2.87,2.87,0,0,0,.31-1.27,2.48,2.48,0,0,0,0-.27,2.1,2.1,0,0,0-.79-2.13,3.25,3.25,0,0,0-3-.31,2.87,2.87,0,0,0,.93,5.59Z"/><path class="cls-3" d="M170,65a2.84,2.84,0,0,0,1.65-.52,2.28,2.28,0,0,0,.69-.57,1.22,1.22,0,0,0,.23-.52,2.83,2.83,0,0,0,.31-1.26,2.66,2.66,0,0,0,0-.28,2.08,2.08,0,0,0-.8-2.13,3.1,3.1,0,0,0-2.35-.47c-.66.36-1.32.74-2,1.13A2.87,2.87,0,0,0,170,65Z"/><path class="cls-3" d="M170,161a2.86,2.86,0,0,0,1.65-.52,2.25,2.25,0,0,0,.68-.57,1.24,1.24,0,0,0,.24-.52,2.82,2.82,0,0,0,.3-1.26,2.48,2.48,0,0,0,0-.27,2.06,2.06,0,0,0-.79-2.13,3.23,3.23,0,0,0-3-.31A2.87,2.87,0,0,0,170,161Z"/><path class="cls-3" d="M160.35,132.24a2.91,2.91,0,0,0,1.65-.52,2.44,2.44,0,0,0,.69-.57,1.22,1.22,0,0,0,.23-.52,2.83,2.83,0,0,0,.31-1.26,2.4,2.4,0,0,0,0-.28,2.1,2.1,0,0,0-.79-2.13,3.26,3.26,0,0,0-3-.3,2.87,2.87,0,0,0,.92,5.58Z"/><path class="cls-3" d="M163.2,167.42a2.1,2.1,0,0,0-.79-2.13,3.23,3.23,0,0,0-3-.31,3.78,3.78,0,0,0-.5.22q2,1.73,4.18,3.27a2.89,2.89,0,0,0,.12-.78A2.48,2.48,0,0,0,163.2,167.42Z"/><path class="cls-3" d="M153.65,158.12a2.45,2.45,0,0,0,0-.27,2.07,2.07,0,0,0-.8-2.13,3.13,3.13,0,0,0-2.6-.43l-.3.09h0c-.09,0-.19.05-.28.09q1.71,2.21,3.58,4.25a1,1,0,0,0,.13-.34A2.82,2.82,0,0,0,153.65,158.12Z"/><path class="cls-3" d="M170,122.67a2.87,2.87,0,0,0,1.65-.53,2.11,2.11,0,0,0,.68-.57,1.2,1.2,0,0,0,.24-.51,2.86,2.86,0,0,0,.3-1.27,2.48,2.48,0,0,0,0-.27,2.08,2.08,0,0,0-.79-2.13,3.23,3.23,0,0,0-3-.3,2.85,2.85,0,0,0-1.95,2.7A2.88,2.88,0,0,0,170,122.67Z"/><path class="cls-3" d="M142.77,93.39a2.14,2.14,0,0,0,.69-.57,1.24,1.24,0,0,0,.23-.51A2.87,2.87,0,0,0,144,91a2.48,2.48,0,0,0,0-.27,2.08,2.08,0,0,0-.8-2.13,2.46,2.46,0,0,0-.81-.4c-.84,1.78-1.62,3.6-2.3,5.47a2.9,2.9,0,0,0,1.06.21A2.85,2.85,0,0,0,142.77,93.39Z"/><path class="cls-3" d="M170,84.34a2.86,2.86,0,0,0,1.65-.52,2.25,2.25,0,0,0,.68-.57,1.24,1.24,0,0,0,.24-.52,2.82,2.82,0,0,0,.3-1.26,2.48,2.48,0,0,0,0-.27,2.06,2.06,0,0,0-.79-2.13,3.23,3.23,0,0,0-3-.31,2.87,2.87,0,0,0,.93,5.58Z"/><path class="cls-3" d="M152.83,117.39a3.17,3.17,0,0,0-2.6-.42l-.3.08h0a2.87,2.87,0,1,0,2.51,5.09,2.14,2.14,0,0,0,.69-.57,1.31,1.31,0,0,0,.23-.51,2.86,2.86,0,0,0,.3-1.27,2.45,2.45,0,0,0,0-.27A2.08,2.08,0,0,0,152.83,117.39Z"/><path class="cls-3" d="M148.74,83.49a2.88,2.88,0,0,0,3.69.33,2.28,2.28,0,0,0,.69-.57,1.36,1.36,0,0,0,.23-.52,2.82,2.82,0,0,0,.3-1.26,2.45,2.45,0,0,0,0-.27,2.07,2.07,0,0,0-.8-2.13,3.13,3.13,0,0,0-2.6-.43c-.1,0-.2.06-.3.09h0a2.86,2.86,0,0,0-1.18,4.76Z"/><path class="cls-3" d="M187.07,83.49a2.86,2.86,0,0,0,3.68.33,2.28,2.28,0,0,0,.69-.57,1.24,1.24,0,0,0,.24-.52,3,3,0,0,0,.3-1.26,2.48,2.48,0,0,0,0-.27,2.06,2.06,0,0,0-.79-2.13,3.16,3.16,0,0,0-2.61-.43c-.1,0-.19.06-.29.09h0a2.86,2.86,0,0,0-2,2.73A2.83,2.83,0,0,0,187.07,83.49Z"/><path class="cls-3" d="M179.45,170.57a2.87,2.87,0,0,0,1.65-.53,2.11,2.11,0,0,0,.68-.57A1.24,1.24,0,0,0,182,169a2.79,2.79,0,0,0,.3-1.26,2.48,2.48,0,0,0,0-.27,2.08,2.08,0,0,0-.79-2.13,3.23,3.23,0,0,0-3-.31,2.87,2.87,0,0,0,.93,5.59Z"/><path class="cls-3" d="M172.06,136.36a3.25,3.25,0,0,0-3-.3,2.87,2.87,0,1,0,2.58,5.06,2.44,2.44,0,0,0,.69-.57,1.22,1.22,0,0,0,.23-.52,2.83,2.83,0,0,0,.31-1.26,2.66,2.66,0,0,0,0-.28A2.08,2.08,0,0,0,172.06,136.36Z"/><path class="cls-3" d="M188.58,65.12a.92.92,0,0,0,.76.11A5.82,5.82,0,0,0,190,65a3.52,3.52,0,0,0,.39-.16l.15-.09.17-.09a2.61,2.61,0,0,0,1.48-2.54,2,2,0,0,0-.56-1.15,3.07,3.07,0,0,0-.67-.85l-.24-.19-.17-.1a2.6,2.6,0,0,0-.4-.23.69.69,0,0,0-.24,0,2.81,2.81,0,0,0-.82-.13,2.87,2.87,0,0,0-.52,5.69Z"/><path class="cls-3" d="M179.45,132.24a2.94,2.94,0,0,0,1.65-.52,2.4,2.4,0,0,0,.68-.57,1.24,1.24,0,0,0,.24-.52,2.82,2.82,0,0,0,.3-1.26,2.4,2.4,0,0,0,0-.28,2.08,2.08,0,0,0-.79-2.13,3.26,3.26,0,0,0-3-.3,2.87,2.87,0,0,0,.93,5.58Z"/><path class="cls-3" d="M162.49,107.73a3.23,3.23,0,0,0-3-.3,2.87,2.87,0,1,0,2.58,5,2,2,0,0,0,.68-.57,1.15,1.15,0,0,0,.24-.51,2.82,2.82,0,0,0,.3-1.26,2.4,2.4,0,0,0,0-.28A2.08,2.08,0,0,0,162.49,107.73Z"/><path class="cls-3" d="M153.31,137.63a2.9,2.9,0,0,0-.67-.85,1.55,1.55,0,0,0-.24-.19,1,1,0,0,0-.17-.1,2.5,2.5,0,0,0-.39-.23.53.53,0,0,0-.25,0,2.76,2.76,0,0,0-.82-.14,2.87,2.87,0,0,0-.52,5.7.93.93,0,0,0,.76.11c.23-.06.45-.14.68-.22a3.29,3.29,0,0,0,.39-.17l.15-.08.16-.09a2.59,2.59,0,0,0,1.48-2.54A1.9,1.9,0,0,0,153.31,137.63Z"/><path class="cls-3" d="M143.17,127a3.25,3.25,0,0,0-3-.3,2.87,2.87,0,0,0,.93,5.58,2.91,2.91,0,0,0,1.65-.52,2.44,2.44,0,0,0,.69-.57,1.22,1.22,0,0,0,.23-.52,2.83,2.83,0,0,0,.31-1.26,2.4,2.4,0,0,0,0-.28A2.08,2.08,0,0,0,143.17,127Z"/><path class="cls-3" d="M153.31,99.31a2.66,2.66,0,0,0-.67-.85,1.59,1.59,0,0,0-.24-.2c-.05,0-.11-.06-.17-.1a2.5,2.5,0,0,0-.39-.23,1,1,0,0,0-.25-.05,3.12,3.12,0,0,0-.82-.13,2.87,2.87,0,0,0-.52,5.69,1,1,0,0,0,.76.12,6,6,0,0,0,.68-.23,3.2,3.2,0,0,0,.39-.16l.15-.08.16-.1a2.58,2.58,0,0,0,1.48-2.53A1.9,1.9,0,0,0,153.31,99.31Z"/><path class="cls-3" d="M143.35,107.9a3.26,3.26,0,0,0-3-.3,2.87,2.87,0,0,0,.92,5.58,2.91,2.91,0,0,0,1.65-.52,2.44,2.44,0,0,0,.69-.57,1.22,1.22,0,0,0,.23-.52,2.83,2.83,0,0,0,.31-1.26,2.66,2.66,0,0,0,0-.28A2.1,2.1,0,0,0,143.35,107.9Z"/><path class="cls-3" d="M187.07,121.82a2.87,2.87,0,0,0,2,.85,2.82,2.82,0,0,0,1.65-.53,2.14,2.14,0,0,0,.69-.57,1.2,1.2,0,0,0,.24-.51,3,3,0,0,0,.3-1.27,2.48,2.48,0,0,0,0-.27,2.08,2.08,0,0,0-.79-2.13,3.19,3.19,0,0,0-2.61-.42l-.29.08h0a2.88,2.88,0,0,0-2,2.74A2.83,2.83,0,0,0,187.07,121.82Z"/><path class="cls-3" d="M188.58,141.77a.92.92,0,0,0,.76.11c.22-.06.45-.14.67-.22a2.3,2.3,0,0,0,.39-.17l.15-.08.17-.09a2.61,2.61,0,0,0,1.48-2.54,2,2,0,0,0-.56-1.15,2.93,2.93,0,0,0-.67-.85l-.24-.19-.17-.1a2.6,2.6,0,0,0-.4-.23.52.52,0,0,0-.24,0,2.82,2.82,0,0,0-.82-.14,2.87,2.87,0,0,0-.52,5.7Z"/><path class="cls-3" d="M188.58,103.44a1,1,0,0,0,.76.12,5.9,5.9,0,0,0,.67-.23,2.27,2.27,0,0,0,.39-.16l.15-.08a1,1,0,0,0,.17-.1,2.6,2.6,0,0,0,1.48-2.53,2,2,0,0,0-.56-1.15,2.81,2.81,0,0,0-.67-.85l-.24-.2c-.06,0-.12-.06-.17-.1a2.6,2.6,0,0,0-.4-.23,1,1,0,0,0-.24-.05,3.19,3.19,0,0,0-.82-.13,2.87,2.87,0,0,0-.52,5.69Z"/><path class="cls-3" d="M179.45,93.92a2.87,2.87,0,0,0,1.65-.53,2.11,2.11,0,0,0,.68-.57,1.26,1.26,0,0,0,.24-.51,2.86,2.86,0,0,0,.3-1.27,2.48,2.48,0,0,0,0-.27,2.08,2.08,0,0,0-.79-2.13,3.23,3.23,0,0,0-3-.31,2.87,2.87,0,0,0,.93,5.59Z"/><path class="cls-3" d="M172.06,98a3.23,3.23,0,0,0-3-.31,2.87,2.87,0,1,0,2.58,5.06,2.14,2.14,0,0,0,.69-.57,1.24,1.24,0,0,0,.23-.51,2.87,2.87,0,0,0,.31-1.27,2.48,2.48,0,0,0,0-.27A2.08,2.08,0,0,0,172.06,98Z"/><path class="cls-3" d="M187.07,160.14a2.86,2.86,0,0,0,3.68.33,2.28,2.28,0,0,0,.69-.57,1.24,1.24,0,0,0,.24-.52,3,3,0,0,0,.3-1.26,2.48,2.48,0,0,0,0-.27,2.06,2.06,0,0,0-.79-2.13,3.16,3.16,0,0,0-2.61-.43c-.1,0-.19.06-.29.09h0a2.86,2.86,0,0,0-2,2.73A2.83,2.83,0,0,0,187.07,160.14Z"/><path class="cls-3" d="M181.67,107.9a3.26,3.26,0,0,0-3-.3,2.87,2.87,0,0,0,.93,5.58,2.94,2.94,0,0,0,1.65-.52,2.27,2.27,0,0,0,.68-.57,1.24,1.24,0,0,0,.24-.52,2.82,2.82,0,0,0,.3-1.26,2.66,2.66,0,0,0,0-.28A2.08,2.08,0,0,0,181.67,107.9Z"/><path class="cls-3" d="M179.62,74.86a2.87,2.87,0,0,0,1.65-.53,2,2,0,0,0,.68-.57,1.26,1.26,0,0,0,.24-.51,2.86,2.86,0,0,0,.3-1.27,2.48,2.48,0,0,0,0-.27,2.08,2.08,0,0,0-.79-2.13,3.23,3.23,0,0,0-3-.31,2.87,2.87,0,0,0,.93,5.59Z"/><path class="cls-3" d="M181.67,146.23a3.23,3.23,0,0,0-3-.31,2.87,2.87,0,1,0,2.58,5.06,2,2,0,0,0,.68-.57,1.26,1.26,0,0,0,.24-.51,2.86,2.86,0,0,0,.3-1.27,2.48,2.48,0,0,0,0-.27A2.08,2.08,0,0,0,181.67,146.23Z"/></g></svg>